<svg width="21" height="20" viewBox="0 0 21 20" fill="none" xmlns="http://www.w3.org/2000/svg">
<path fillRule="evenodd" clipRule="evenodd" d="M20.8274 10C20.8274 15.5228 16.2993 20 10.7137 20C5.12813 20 0.600098 15.5228 0.600098 10C0.600098 4.47715 5.12813 0 10.7137 0C16.2993 0 20.8274 4.47715 20.8274 10ZM14.2708 17.8189C13.1855 18.3024 11.9814 18.5714 10.7137 18.5714C8.62099 18.5714 6.70144 17.8382 5.20354 16.6174C6.76179 14.0319 9.2681 12.0716 12.2474 11.2044C13.1031 13.3272 13.7835 15.5379 14.2708 17.8189ZM15.589 17.0885C15.1089 14.9537 14.4652 12.8798 13.6716 10.8805C14.3322 10.7712 15.0108 10.7143 15.7028 10.7143C16.9528 10.7143 18.1579 10.8997 19.2919 11.244C18.9352 13.6702 17.5506 15.7669 15.589 17.0885ZM19.3798 9.78094C18.2093 9.45813 16.9759 9.28571 15.7028 9.28571C14.8154 9.28571 13.9477 9.36941 13.1075 9.52924C12.8883 9.02915 12.6597 8.53408 12.4217 8.04427C14.313 7.21419 16.0609 6.12272 17.6183 4.81636C18.6837 6.20172 19.3325 7.91747 19.3798 9.78094ZM16.6509 3.75438C15.1888 4.97559 13.5483 5.99396 11.7733 6.76576C10.8363 4.99418 9.77584 3.29666 8.60315 1.6844C9.27875 1.51729 9.98576 1.42857 10.7137 1.42857C13.011 1.42857 15.0996 2.31216 16.6509 3.75438ZM7.17579 2.17258C4.63092 3.29886 2.73557 5.60286 2.19885 8.38345C2.69202 8.41928 3.19024 8.43752 3.6929 8.43752C6.05365 8.43752 8.31901 8.03513 10.4229 7.29582C9.46733 5.5051 8.38077 3.7932 7.17579 2.17258ZM2.04711 9.8048C2.04564 9.86969 2.0449 9.93476 2.0449 10C2.0449 12.1372 2.83596 14.0917 4.14435 15.5928C5.86788 12.8924 8.53352 10.8372 11.6856 9.87939C11.4909 9.44235 11.2888 9.00932 11.0793 8.58048C8.77536 9.4122 6.28756 9.86609 3.6929 9.86609C3.13929 9.86609 2.59044 9.84542 2.04711 9.8048Z" fill="#797636"/>
</svg>
