<svg width="22" height="20" viewBox="0 0 22 20" fill="none" xmlns="http://www.w3.org/2000/svg">
<path d="M11 0C4.92617 0 0 4.59069 0 10.2528C0 14.7828 3.1515 18.6259 7.52308 19.9819C8.07217 20.0767 8.25 19.7589 8.25 19.4889V17.5801C5.19017 18.2004 4.55308 16.3703 4.55308 16.3703C4.05258 15.1853 3.33117 14.87 3.33117 14.87C2.33292 14.2335 3.40725 14.2471 3.40725 14.2471C4.51183 14.3189 5.093 15.304 5.093 15.304C6.07383 16.871 7.66608 16.4182 8.294 16.1559C8.39208 15.4937 8.67717 15.0409 8.9925 14.7854C6.54958 14.5248 3.98108 13.6456 3.98108 9.71795C3.98108 8.59783 4.411 7.68362 5.11408 6.96593C5.00042 6.70704 4.62367 5.66382 5.22133 4.25235C5.22133 4.25235 6.14533 3.97723 8.24725 5.30326C9.1245 5.07599 10.065 4.96236 11 4.95808C11.935 4.96236 12.8764 5.07599 13.7555 5.30326C15.8556 3.97723 16.7777 4.25235 16.7777 4.25235C17.3763 5.66467 16.9996 6.7079 16.8859 6.96593C17.5917 7.68362 18.018 8.59868 18.018 9.71795C18.018 13.6559 15.4449 14.5231 12.9956 14.7769C13.3898 15.0947 13.75 15.7184 13.75 16.6753V19.4889C13.75 19.7614 13.926 20.0818 14.4842 19.981C18.8522 18.6234 22 14.7811 22 10.2528C22 4.59069 17.0748 0 11 0Z" fill="#797636"/>
</svg>
