<svg width="23" height="20" viewBox="0 0 23 20" fill="none" xmlns="http://www.w3.org/2000/svg">
<path d="M22.6 2.36772C21.7685 2.76969 20.8749 3.0404 19.937 3.16243C20.8946 2.53794 21.6301 1.5484 21.9757 0.369155C21.0801 0.947498 20.0876 1.36792 19.0311 1.59454C18.1864 0.613208 16.9801 0 15.6467 0C12.6532 0 10.4534 3.04143 11.1296 6.19873C7.2772 5.98851 3.86083 3.97867 1.57352 0.923913C0.358775 3.19319 0.94355 6.16181 3.00768 7.66509C2.2487 7.63843 1.53303 7.41181 0.908708 7.03343C0.857858 9.37244 2.39748 11.5607 4.62735 12.0478C3.97477 12.2406 3.26005 12.2857 2.53308 12.1339C3.12257 14.1397 4.83452 15.5988 6.86475 15.6399C4.9155 17.3041 2.45963 18.0476 0 17.7317C2.05189 19.1643 4.48987 20 7.1077 20C15.7164 20 20.5801 12.0826 20.2863 4.98154C21.1922 4.26887 21.9785 3.37982 22.6 2.36772V2.36772Z" fill="#797636"/>
</svg>
