<svg width="124" height="46" viewBox="0 0 124 46" fill="none" xmlns="http://www.w3.org/2000/svg">
<path d="M78.0013 14.134C78.0013 14.134 81.5534 14.155 85.1668 13.0643C88.7802 11.9735 90.5769 12.3005 96.3207 13.8323C102.064 15.3642 107.827 15.2693 107.827 15.2693" stroke="#EDBC9B" stroke-width="23" stroke-linecap="round"/>
<path d="M121.588 45.033C122.928 45.033 124 44.1868 124 42.6557C124 41.044 122.928 40.1978 121.588 40.1978C120.209 40.1978 119.137 41.044 119.137 42.6557C119.137 44.1868 120.209 45.033 121.588 45.033Z" fill="#797636"/>
<path d="M38.2455 17.7868C38.2455 18.1897 38.4967 18.6652 38.9992 19.2132C39.5179 19.7612 39.7773 20.1077 39.7773 20.2527V20.4703C39.7773 20.696 39.6557 20.8088 39.4126 20.8088H33.0667C32.8073 20.8088 32.6776 20.704 32.6776 20.4945C32.629 20.2689 32.629 20.0916 32.6776 19.9626C32.7263 19.8659 32.8884 19.6886 33.1639 19.4308C33.4557 19.1568 33.7069 18.8747 33.9176 18.5846C34.1446 18.2945 34.2499 18.0125 34.2337 17.7385V13.3868C34.2337 12.9516 34.1527 12.6212 33.9906 12.3956C33.8285 12.17 33.6016 12.0007 33.3098 11.8879C33.018 11.759 32.8478 11.6703 32.7992 11.622C32.6533 11.5092 32.5804 11.348 32.5804 11.1385C32.5642 10.9289 32.6452 10.7678 32.8235 10.6549C33.2936 10.381 33.9663 10.115 34.8416 9.85714C35.7331 9.58315 36.4382 9.44615 36.9569 9.44615C37.4269 9.44615 37.7592 9.6315 37.9537 10.0022C38.1482 10.3568 38.2455 11.0256 38.2455 12.0088V17.7868ZM36.0086 4.49011C36.7218 4.49011 37.3216 4.68352 37.8078 5.07033C38.3103 5.45714 38.5616 5.92454 38.5616 6.47253C38.5616 7.02051 38.3103 7.49597 37.8078 7.8989C37.3054 8.28571 36.7056 8.47912 36.0086 8.47912C35.3116 8.47912 34.7119 8.28571 34.2094 7.8989C33.7069 7.49597 33.4557 7.02051 33.4557 6.47253C33.4557 5.92454 33.7069 5.45714 34.2094 5.07033C34.7119 4.68352 35.3116 4.49011 36.0086 4.49011Z" fill="#797636"/>
<path d="M40.5747 10.8484C40.3315 10.8484 40.21 10.7355 40.21 10.5099V10.1473C40.21 9.92161 40.3315 9.80879 40.5747 9.80879C41.1258 9.80879 41.6121 9.67985 42.0335 9.42198C42.4549 9.14799 42.7791 8.81758 43.006 8.43077C43.2492 8.04396 43.468 7.65714 43.6625 7.27033C43.857 6.8674 44.0677 6.52894 44.2947 6.25494C44.5378 5.98095 44.7972 5.8359 45.0727 5.81978H45.1213C45.5914 5.81978 45.8264 6.29524 45.8264 7.24615C45.8264 7.31062 45.8183 7.64103 45.8021 8.23736C45.8021 8.81758 45.8021 9.34139 45.8021 9.80879H47.8445C48.0552 9.80879 48.1606 9.92161 48.1606 10.1473V10.5099C48.1606 10.7355 48.0552 10.8484 47.8445 10.8484H45.7535C45.7535 11.6059 45.7454 12.6293 45.7292 13.9187C45.713 15.2081 45.7049 15.9736 45.7049 16.2154C45.7049 17.2952 45.9885 17.8352 46.5558 17.8352C46.8152 17.8352 47.2042 17.7143 47.7229 17.4725C47.7553 17.4564 47.804 17.4484 47.8688 17.4484C47.9985 17.4484 48.1038 17.5128 48.1849 17.6418C48.2821 17.7707 48.3064 17.8996 48.2578 18.0286C48.1119 18.7216 47.7229 19.3582 47.0907 19.9385C46.4748 20.5187 45.7211 20.8088 44.8296 20.8088C44.0191 20.8088 43.2816 20.5267 42.617 19.9626C41.9687 19.3985 41.6445 18.6733 41.6445 17.7868C41.6445 17.3678 41.6364 16.2637 41.6202 14.4747C41.604 12.6857 41.5958 11.4769 41.5958 10.8484H40.5747Z" fill="#797636"/>
<path d="M49.3124 10.8484C49.0693 10.8484 48.9477 10.7355 48.9477 10.5099V10.1473C48.9477 9.92161 49.0693 9.80879 49.3124 9.80879C49.8635 9.80879 50.3498 9.67985 50.7712 9.42198C51.1927 9.14799 51.5169 8.81758 51.7438 8.43077C51.9869 8.04396 52.2057 7.65714 52.4003 7.27033C52.5948 6.8674 52.8055 6.52894 53.0324 6.25494C53.2756 5.98095 53.5349 5.8359 53.8105 5.81978H53.8591C54.3291 5.81978 54.5642 6.29524 54.5642 7.24615C54.5642 7.31062 54.5561 7.64103 54.5399 8.23736C54.5399 8.81758 54.5399 9.34139 54.5399 9.80879H56.5822C56.7929 9.80879 56.8983 9.92161 56.8983 10.1473V10.5099C56.8983 10.7355 56.7929 10.8484 56.5822 10.8484H54.4912C54.4912 11.6059 54.4831 12.6293 54.4669 13.9187C54.4507 15.2081 54.4426 15.9736 54.4426 16.2154C54.4426 17.2952 54.7263 17.8352 55.2936 17.8352C55.5529 17.8352 55.942 17.7143 56.4607 17.4725C56.4931 17.4564 56.5417 17.4484 56.6065 17.4484C56.7362 17.4484 56.8416 17.5128 56.9226 17.6418C57.0199 17.7707 57.0442 17.8996 56.9956 18.0286C56.8497 18.7216 56.4606 19.3582 55.8285 19.9385C55.2125 20.5187 54.4588 20.8088 53.5673 20.8088C52.7569 20.8088 52.0193 20.5267 51.3548 19.9626C50.7064 19.3985 50.3822 18.6733 50.3822 17.7868C50.3822 17.3678 50.3741 16.2637 50.3579 14.4747C50.3417 12.6857 50.3336 11.4769 50.3336 10.8484H49.3124Z" fill="#797636"/>
<path d="M64.1529 9.47033C66.0332 9.47033 67.5811 10.0344 68.7968 11.1626C70.0125 12.2908 70.6204 13.6769 70.6204 15.3209C70.6204 16.9971 70.0287 18.3993 68.8455 19.5275C67.6622 20.6557 66.098 21.2198 64.1529 21.2198C62.224 21.2198 60.6598 20.6557 59.4604 19.5275C58.2771 18.3993 57.6855 16.9971 57.6855 15.3209C57.6855 13.6769 58.2933 12.2908 59.509 11.1626C60.7409 10.0344 62.2888 9.47033 64.1529 9.47033ZM65.2713 20.1802C66.0007 20.0029 66.4465 19.4066 66.6086 18.3912C66.7869 17.3758 66.714 16.2234 66.3898 14.9341C66.0656 13.6447 65.6441 12.6051 65.1255 11.8154C64.623 11.0095 64.0556 10.6066 63.4235 10.6066C63.3424 10.6066 63.2371 10.6227 63.1074 10.6549C62.378 10.8322 61.916 11.4286 61.7215 12.444C61.527 13.4432 61.5838 14.5956 61.8917 15.9011C62.1511 17.1744 62.532 18.2139 63.0345 19.0198C63.5532 19.8256 64.1529 20.2286 64.8337 20.2286C65.0282 20.2286 65.1741 20.2125 65.2713 20.1802Z" fill="#797636"/>
<path d="M79.2318 9.34945C79.2642 9.34945 79.3209 9.34945 79.402 9.34945C79.4992 9.33333 79.5722 9.32527 79.6208 9.32527C80.5934 9.32527 81.4119 9.57509 82.0765 10.0747C82.7411 10.5744 83.0652 11.2271 83.049 12.033C83.049 12.5487 82.8707 12.9758 82.5141 13.3143C82.1737 13.6366 81.7523 13.7978 81.2498 13.7978C80.6825 13.7978 80.2449 13.685 79.9369 13.4593C79.6289 13.2176 79.4749 12.9114 79.4749 12.5407C79.4749 12.2344 79.5965 11.8718 79.8396 11.4527C79.9693 11.1143 79.9612 10.8161 79.8153 10.5582C79.6694 10.3004 79.4101 10.1714 79.0373 10.1714C78.4051 10.1553 77.9107 10.5018 77.5541 11.211C77.2137 11.9201 77.0273 12.8872 76.9949 14.1121V17.7868C76.9949 18.1897 77.2462 18.6652 77.7486 19.2132C78.2673 19.7612 78.5267 20.1077 78.5267 20.2527V20.4703C78.5267 20.696 78.4051 20.8088 78.162 20.8088H71.8161C71.5567 20.8088 71.4271 20.704 71.4271 20.4945C71.3784 20.2689 71.3947 20.0916 71.4757 19.9626C71.5081 19.8498 71.6621 19.6725 71.9377 19.4308C72.2132 19.1729 72.4564 18.8989 72.6671 18.6088C72.894 18.3026 72.9994 18.0125 72.9832 17.7385V13.6769C72.9832 13.2579 72.894 12.9355 72.7157 12.7099C72.5536 12.4681 72.3348 12.2828 72.0592 12.1538C71.7837 12.0249 71.6216 11.9363 71.573 11.8879C71.4271 11.7912 71.3541 11.6462 71.3541 11.4527C71.3541 11.2593 71.4271 11.0982 71.573 10.9692C71.8323 10.6791 72.4888 10.3648 73.5424 10.0264C74.596 9.67179 75.3335 9.48645 75.7549 9.47033C76.1601 9.47033 76.4924 9.91355 76.7518 10.8C77.3191 9.9619 78.1458 9.47839 79.2318 9.34945Z" fill="#797636"/>
<path d="M89.6985 17.7868C89.6985 18.1897 89.9497 18.6652 90.4522 19.2132C90.9709 19.7612 91.2302 20.1077 91.2302 20.2527V20.4703C91.2302 20.696 91.1087 20.8088 90.8655 20.8088H84.5196C84.2603 20.8088 84.1306 20.704 84.1306 20.4945C84.082 20.2689 84.082 20.0916 84.1306 19.9626C84.1792 19.8659 84.3413 19.6886 84.6169 19.4308C84.9087 19.1568 85.1599 18.8747 85.3706 18.5846C85.5975 18.2945 85.7029 18.0125 85.6867 17.7385V13.3868C85.6867 12.9516 85.6057 12.6212 85.4436 12.3956C85.2815 12.17 85.0545 12.0007 84.7628 11.8879C84.471 11.759 84.3008 11.6703 84.2522 11.622C84.1063 11.5092 84.0334 11.348 84.0334 11.1385C84.0172 10.9289 84.0982 10.7678 84.2765 10.6549C84.7466 10.381 85.4192 10.115 86.2945 9.85714C87.186 9.58315 87.8911 9.44615 88.4098 9.44615C88.8799 9.44615 89.2122 9.6315 89.4067 10.0022C89.6012 10.3568 89.6985 11.0256 89.6985 12.0088V17.7868ZM87.4616 4.49011C88.1748 4.49011 88.7745 4.68352 89.2608 5.07033C89.7633 5.45714 90.0145 5.92454 90.0145 6.47253C90.0145 7.02051 89.7633 7.49597 89.2608 7.8989C88.7583 8.28571 88.1586 8.47912 87.4616 8.47912C86.7646 8.47912 86.1649 8.28571 85.6624 7.8989C85.1599 7.49597 84.9087 7.02051 84.9087 6.47253C84.9087 5.92454 85.1599 5.45714 85.6624 5.07033C86.1649 4.68352 86.7646 4.49011 87.4616 4.49011Z" fill="#797636"/>
<path d="M98.3678 9.47033C100.248 9.47033 101.796 10.0344 103.012 11.1626C104.227 12.2908 104.835 13.6769 104.835 15.3209C104.835 16.9971 104.244 18.3993 103.06 19.5275C101.877 20.6557 100.313 21.2198 98.3678 21.2198C96.4389 21.2198 94.8748 20.6557 93.6753 19.5275C92.492 18.3993 91.9004 16.9971 91.9004 15.3209C91.9004 13.6769 92.5082 12.2908 93.7239 11.1626C94.9558 10.0344 96.5038 9.47033 98.3678 9.47033ZM99.4863 20.1802C100.216 20.0029 100.661 19.4066 100.824 18.3912C101.002 17.3758 100.929 16.2234 100.605 14.9341C100.281 13.6447 99.8591 12.6051 99.3404 11.8154C98.8379 11.0095 98.2706 10.6066 97.6384 10.6066C97.5574 10.6066 97.452 10.6227 97.3223 10.6549C96.5929 10.8322 96.131 11.4286 95.9364 12.444C95.7419 13.4432 95.7987 14.5956 96.1067 15.9011C96.366 17.1744 96.7469 18.2139 97.2494 19.0198C97.7681 19.8256 98.3678 20.2286 99.0486 20.2286C99.2431 20.2286 99.389 20.2125 99.4863 20.1802Z" fill="#797636"/>
<path d="M34.0392 2.39819V2.62573C34.0392 2.85326 33.6864 3.2799 32.9809 3.90562C32.2753 4.53135 31.7985 5.12864 31.5506 5.69748L27.1742 18.6102C27.0025 19.3497 27.0121 19.8711 27.2028 20.1745C27.3553 20.459 27.2886 20.6865 27.0025 20.8571C26.2779 21.1795 25.496 21.3407 24.657 21.3407C24.4091 21.3407 24.2184 21.3312 24.0849 21.3122H24.1135C23.5986 21.2933 23.1219 21.151 22.6833 20.8856C22.2447 20.6201 21.8633 20.2599 21.5391 19.8048C21.234 19.3307 20.9956 18.9515 20.824 18.6671C20.6714 18.3637 20.4998 17.9845 20.3091 17.5294C20.0612 16.9606 19.6321 15.6996 19.0219 13.7466C18.4308 11.7936 17.8873 9.98276 17.3915 8.31416C16.8957 6.62659 16.6478 5.75436 16.6478 5.69748C16.4571 5.22344 16.1424 4.77785 15.7038 4.3607C15.2843 3.94355 14.9124 3.60224 14.5882 3.33678C14.2641 3.07132 14.102 2.8343 14.102 2.62573V2.39819C14.102 2.13273 14.2354 2 14.5024 2L22.4544 2.02844C22.7596 2.02844 22.9121 2.14221 22.9121 2.36975C22.9693 2.63521 22.9503 2.84378 22.8549 2.99547C22.8168 3.09028 22.6737 3.2799 22.4258 3.56432C22.197 3.84874 22.0254 4.15212 21.911 4.47447C21.8156 4.79681 21.8251 5.1476 21.9396 5.52683L21.9968 5.66904C23.2744 11.8505 24.2279 15.6048 24.8572 16.9321C25.0098 17.1976 25.2195 17.3303 25.4865 17.3303C25.7916 17.3303 25.9918 17.1786 26.0872 16.8752L29.8344 5.55527C29.9297 5.00539 29.9393 4.61668 29.863 4.38914C29.7867 4.1616 29.6246 3.89614 29.3767 3.59276C29.1479 3.28938 29.0144 3.09028 28.9762 2.99547C28.9381 2.91963 28.9095 2.8343 28.8904 2.73949C28.8904 2.62573 28.8904 2.5404 28.8904 2.48352L28.919 2.36975C28.919 2.14221 29.0716 2.02844 29.3767 2.02844L33.6101 2C33.8962 2 34.0392 2.13273 34.0392 2.39819Z" fill="#797636"/>
<path d="M41.2191 41.6097V42.3011C41.2191 42.3849 41.1664 42.4792 41.061 42.584C40.9767 42.6678 40.8608 42.7097 40.7133 42.7097C39.8283 42.7097 39.0381 42.6992 38.3427 42.6782C37.6474 42.6782 37.2049 42.6782 37.0152 42.6782C36.3831 42.6782 35.8247 42.4373 35.34 41.9554C34.8764 41.4525 34.5287 40.8449 34.2969 40.1325C33.6648 42.0392 32.2424 42.9925 30.0299 42.9925C28.6602 42.9925 27.438 42.584 26.3634 41.7668C25.2887 40.9497 24.6039 39.682 24.3089 37.964C24.2035 37.3563 24.1508 35.5649 24.1508 32.5897C24.1298 32.1916 24.0244 31.8144 23.8347 31.4582C23.6662 31.1021 23.4976 30.8401 23.329 30.6725C23.1604 30.484 22.9497 30.2744 22.6969 30.044C22.444 29.8135 22.2965 29.6773 22.2544 29.6354C22.0858 29.4678 22.0015 29.2582 22.0015 29.0068C22.0015 28.7554 22.0963 28.5668 22.286 28.4411C23.0445 28.0221 24.5828 27.8125 26.9007 27.8125C27.9122 27.8125 28.5759 28.0116 28.892 28.4097C29.2292 28.8078 29.3872 29.6878 29.3661 31.0497V37.9325C29.4293 38.6449 29.6506 39.2735 30.0299 39.8182C30.4302 40.342 30.9676 40.5935 31.6419 40.5725C32.1265 40.5516 32.5374 40.384 32.8746 40.0697C33.2328 39.7554 33.4857 39.3468 33.6332 38.844C33.7807 38.3411 33.886 37.8697 33.9493 37.4297C34.0125 36.9687 34.0441 36.4973 34.0441 36.0154L34.1073 32.8097C34.1073 32.4535 34.0546 32.1287 33.9493 31.8354C33.865 31.5211 33.7385 31.2487 33.57 31.0182C33.4014 30.7878 33.2433 30.5992 33.0958 30.4525C32.9694 30.2849 32.8008 30.1173 32.5901 29.9497C32.4005 29.782 32.2846 29.6773 32.2424 29.6354C32.0739 29.4678 31.979 29.2582 31.958 29.0068C31.958 28.7554 32.0633 28.5668 32.274 28.4411C32.9905 28.0221 34.5182 27.8125 36.8572 27.8125C37.8897 27.8125 38.564 28.0116 38.8801 28.4097C39.2172 28.7868 39.3753 29.6668 39.3542 31.0497L39.1962 38.6554C39.1751 39.0325 39.3121 39.4201 39.6071 39.8182C39.9021 40.1954 40.2287 40.562 40.5869 40.9182C40.9451 41.2535 41.1558 41.484 41.2191 41.6097Z" fill="#797636"/>
<path d="M54.4706 34.1925C54.8289 34.3811 55.0607 34.5173 55.166 34.6011C55.2924 34.664 55.5559 34.8421 55.9562 35.1354C56.3566 35.4287 56.6516 35.7011 56.8412 35.9525C57.0309 36.204 57.21 36.5497 57.3786 36.9897C57.5682 37.4087 57.6525 37.8592 57.6314 38.3411C57.6104 39.3678 57.2205 40.2373 56.4619 40.9497C55.7034 41.6621 54.7657 42.1754 53.6488 42.4897C52.532 42.804 51.2888 42.9716 49.9191 42.9925C47.8541 43.0135 46.1683 42.6782 44.8619 41.9868C43.5554 41.2954 42.839 40.5411 42.7125 39.724C42.6282 39.0325 42.7652 38.4354 43.1234 37.9325C43.4817 37.4297 43.9979 37.0944 44.6722 36.9268C44.9251 36.8849 45.1147 36.864 45.2412 36.864C45.8733 36.864 46.4844 37.0211 47.0744 37.3354C47.6644 37.6287 47.9805 37.943 48.0226 38.2782C48.0648 38.4878 47.9489 38.7601 47.675 39.0954C47.401 39.4306 47.2325 39.7344 47.1692 40.0068C47.0007 40.6144 47.1798 41.1068 47.7066 41.484C48.2334 41.8611 48.9182 42.0497 49.7611 42.0497C50.604 42.0497 51.2572 41.8611 51.7208 41.484C52.2054 41.0859 52.4267 40.5935 52.3845 40.0068C52.3635 39.483 52.0685 38.9801 51.4995 38.4982C50.9306 38.0163 50.3511 37.6287 49.7611 37.3354C49.6557 37.2935 49.445 37.1992 49.1289 37.0525C48.8339 36.8849 48.4757 36.6963 48.0543 36.4868C47.6539 36.2563 47.3589 36.0887 47.1692 35.984C44.5352 34.664 43.292 33.1449 43.4395 31.4268C43.587 30.2535 44.314 29.3106 45.6205 28.5982C46.948 27.8649 48.5284 27.4982 50.3616 27.4982H50.9622C52.7954 27.603 54.1651 27.9487 55.0712 28.5354C55.9984 29.122 56.483 29.7821 56.5252 30.5154C56.5673 30.9344 56.4198 31.3116 56.0826 31.6468C55.7666 31.9611 55.3135 32.1287 54.7235 32.1497C54.6182 32.1706 54.4601 32.1811 54.2494 32.1811C53.6805 32.1811 53.1537 32.0554 52.669 31.804C52.2054 31.5525 51.942 31.2592 51.8788 30.924C51.8788 30.7354 52.0158 30.5363 52.2897 30.3268C52.5636 30.1173 52.7111 29.9078 52.7322 29.6982C52.7533 29.5725 52.7111 29.4363 52.6058 29.2897C52.5004 29.1221 52.2792 28.9649 51.942 28.8182C51.6259 28.6716 51.2256 28.5878 50.7409 28.5668C50.1088 28.5668 49.5293 28.6821 49.0025 28.9125C48.4757 29.1221 48.2123 29.4992 48.2123 30.044C48.2334 30.2954 48.3703 30.5573 48.6232 30.8297C48.8761 31.0811 49.0973 31.2592 49.287 31.364C49.4766 31.4687 49.7716 31.6259 50.172 31.8354C50.2563 31.8773 50.5934 32.0659 51.1834 32.4011C51.7945 32.7154 52.4056 33.0401 53.0167 33.3754C53.6488 33.7106 54.1335 33.983 54.4706 34.1925Z" fill="#797636"/>
<path d="M74.5071 40.6668C75.1603 41.2116 75.1181 41.704 74.3806 42.144C73.6642 42.5001 72.7686 42.6782 71.694 42.6782C69.7975 42.4268 68.5964 41.0544 68.0907 38.5611C68.0907 38.5401 68.0801 38.4773 68.0591 38.3725C67.9326 37.8068 67.8167 37.3563 67.7114 37.0211C67.606 36.6649 67.3953 36.2878 67.0792 35.8897C66.7631 35.4706 66.3733 35.2506 65.9097 35.2297H65.7833C65.1722 35.2297 64.6981 35.5021 64.3609 36.0468C64.0238 36.5706 63.8974 37.2621 63.9816 38.1211C64.0659 38.9173 64.4136 39.5249 65.0247 39.944C65.6569 40.363 66.3838 40.5725 67.2056 40.5725C67.2267 40.5516 67.2689 40.5411 67.3321 40.5411C67.3742 40.5411 67.4585 40.5725 67.5849 40.6354C67.6271 40.6982 67.6482 40.803 67.6482 40.9497C67.4164 41.3687 66.9739 41.7563 66.3206 42.1125C65.6674 42.4478 64.8561 42.6154 63.8868 42.6154C62.5171 42.6154 61.3055 42.2592 60.2519 41.5468C59.2194 40.8135 58.6715 39.7554 58.6083 38.3725C58.5662 36.9687 59.1035 35.8687 60.2203 35.0725C61.3582 34.2763 62.633 33.8468 64.0449 33.784C64.1081 33.784 64.1924 33.784 64.2977 33.784C64.4031 33.763 64.4874 33.7525 64.5506 33.7525C65.836 33.7525 66.8369 33.9935 67.5533 34.4754C67.5323 34.3916 67.5007 34.2449 67.4585 34.0354C67.4374 33.8049 67.4164 33.6373 67.3953 33.5325C67.1003 31.5211 66.7526 30.2116 66.3522 29.604C65.9519 29.0173 65.4672 28.724 64.8983 28.724C63.8657 28.724 63.5286 29.1849 63.8868 30.1068C64.1818 30.6935 64.3293 31.1544 64.3293 31.4897C64.3293 31.9297 64.0975 32.2963 63.634 32.5897C63.1704 32.883 62.633 33.0297 62.022 33.0297C61.4109 33.0297 60.8735 32.8411 60.41 32.464C59.9464 32.0659 59.7146 31.563 59.7146 30.9554C59.7146 29.9706 60.2308 29.1954 61.2634 28.6297C62.2959 28.064 63.5602 27.7811 65.0563 27.7811C65.4567 27.7811 65.7517 27.7916 65.9413 27.8125C69.5868 28.0221 71.7361 29.7192 72.3893 32.904C72.3893 33.0297 72.6949 34.7373 73.306 38.0268C73.5799 39.263 73.9803 40.143 74.5071 40.6668Z" fill="#797636"/>
<path d="M76.2452 29.604C75.9292 29.604 75.7711 29.4573 75.7711 29.164V28.6925C75.7711 28.3992 75.9292 28.2525 76.2452 28.2525C76.9617 28.2525 77.5938 28.0849 78.1417 27.7497C78.6896 27.3935 79.111 26.964 79.406 26.4611C79.7221 25.9582 80.0066 25.4554 80.2594 24.9525C80.5123 24.4287 80.7862 23.9887 81.0812 23.6325C81.3973 23.2763 81.7345 23.0878 82.0927 23.0668H82.1559C82.767 23.0668 83.0725 23.6849 83.0725 24.9211C83.0725 25.0049 83.062 25.4344 83.0409 26.2097C83.0409 26.964 83.0409 27.6449 83.0409 28.2525H85.696C85.9699 28.2525 86.1069 28.3992 86.1069 28.6925V29.164C86.1069 29.4573 85.9699 29.604 85.696 29.604H82.9777C82.9777 30.5887 82.9672 31.9192 82.9461 33.5954C82.925 35.2716 82.9145 36.2668 82.9145 36.5811C82.9145 37.9849 83.2833 38.6868 84.0208 38.6868C84.3579 38.6868 84.8636 38.5297 85.5379 38.2154C85.5801 38.1944 85.6433 38.184 85.7276 38.184C85.8962 38.184 86.0331 38.2678 86.1385 38.4354C86.2649 38.603 86.2965 38.7706 86.2333 38.9382C86.0437 39.8392 85.5379 40.6668 84.7161 41.4211C83.9154 42.1754 82.9356 42.5525 81.7766 42.5525C80.723 42.5525 79.7643 42.1859 78.9003 41.4525C78.0574 40.7192 77.636 39.7763 77.636 38.624C77.636 38.0792 77.6255 36.644 77.6044 34.3182C77.5833 31.9925 77.5728 30.4211 77.5728 29.604H76.2452Z" fill="#797636"/>
<path d="M87.6043 29.604C87.2882 29.604 87.1302 29.4573 87.1302 29.164V28.6925C87.1302 28.3992 87.2882 28.2525 87.6043 28.2525C88.3208 28.2525 88.9529 28.0849 89.5008 27.7497C90.0486 27.3935 90.4701 26.964 90.7651 26.4611C91.0812 25.9582 91.3656 25.4554 91.6185 24.9525C91.8714 24.4287 92.1453 23.9887 92.4403 23.6325C92.7564 23.2763 93.0935 23.0878 93.4518 23.0668H93.515C94.1261 23.0668 94.4316 23.6849 94.4316 24.9211C94.4316 25.0049 94.4211 25.4344 94.4 26.2097C94.4 26.964 94.4 27.6449 94.4 28.2525H97.0551C97.329 28.2525 97.466 28.3992 97.466 28.6925V29.164C97.466 29.4573 97.329 29.604 97.0551 29.604H94.3368C94.3368 30.5887 94.3262 31.9192 94.3052 33.5954C94.2841 35.2716 94.2736 36.2668 94.2736 36.5811C94.2736 37.9849 94.6423 38.6868 95.3798 38.6868C95.717 38.6868 96.2227 38.5297 96.897 38.2154C96.9392 38.1944 97.0024 38.184 97.0867 38.184C97.2552 38.184 97.3922 38.2678 97.4976 38.4354C97.624 38.603 97.6556 38.7706 97.5924 38.9382C97.4027 39.8392 96.897 40.6668 96.0752 41.4211C95.2745 42.1754 94.2946 42.5525 93.1357 42.5525C92.0821 42.5525 91.1233 42.1859 90.2594 41.4525C89.4165 40.7192 88.9951 39.7763 88.9951 38.624C88.9951 38.0792 88.9845 36.644 88.9634 34.3182C88.9424 31.9925 88.9318 30.4211 88.9318 29.604H87.6043Z" fill="#797636"/>
<path d="M115.313 40.6668C115.966 41.2116 115.924 41.704 115.187 42.144C114.47 42.5001 113.575 42.6782 112.5 42.6782C110.604 42.4268 109.403 41.0544 108.897 38.5611C108.897 38.5401 108.886 38.4773 108.865 38.3725C108.739 37.8068 108.623 37.3563 108.518 37.0211C108.412 36.6649 108.202 36.2878 107.885 35.8897C107.569 35.4706 107.18 35.2506 106.716 35.2297H106.59C105.978 35.2297 105.504 35.5021 105.167 36.0468C104.83 36.5706 104.704 37.2621 104.788 38.1211C104.872 38.9173 105.22 39.5249 105.831 39.944C106.463 40.363 107.19 40.5725 108.012 40.5725C108.033 40.5516 108.075 40.5411 108.138 40.5411C108.18 40.5411 108.265 40.5725 108.391 40.6354C108.433 40.6982 108.454 40.803 108.454 40.9497C108.223 41.3687 107.78 41.7563 107.127 42.1125C106.474 42.4478 105.662 42.6154 104.693 42.6154C103.323 42.6154 102.112 42.2592 101.058 41.5468C100.026 40.8135 99.4778 39.7554 99.4145 38.3725C99.3724 36.9687 99.9097 35.8687 101.027 35.0725C102.164 34.2763 103.439 33.8468 104.851 33.784C104.914 33.784 104.999 33.784 105.104 33.784C105.209 33.763 105.294 33.7525 105.357 33.7525C106.642 33.7525 107.643 33.9935 108.36 34.4754C108.338 34.3916 108.307 34.2449 108.265 34.0354C108.244 33.8049 108.223 33.6373 108.202 33.5325C107.907 31.5211 107.559 30.2116 107.158 29.604C106.758 29.0173 106.273 28.724 105.704 28.724C104.672 28.724 104.335 29.1849 104.693 30.1068C104.988 30.6935 105.136 31.1544 105.136 31.4897C105.136 31.9297 104.904 32.2963 104.44 32.5897C103.977 32.883 103.439 33.0297 102.828 33.0297C102.217 33.0297 101.68 32.8411 101.216 32.464C100.753 32.0659 100.521 31.563 100.521 30.9554C100.521 29.9706 101.037 29.1954 102.07 28.6297C103.102 28.064 104.366 27.7811 105.863 27.7811C106.263 27.7811 106.558 27.7916 106.748 27.8125C110.393 28.0221 112.542 29.7192 113.196 32.904C113.196 33.0297 113.501 34.7373 114.112 38.0268C114.386 39.263 114.786 40.143 115.313 40.6668Z" fill="#797636"/>
<path d="M21.3956 38.4009C21.4191 40.6673 20.6071 42.4671 18.9595 43.8003C17.3118 45.1334 15.1346 45.8667 12.4278 46H12.4631H0.5649C0.447212 46 0.329525 45.9467 0.211837 45.84C0.117687 45.7334 0.0706125 45.6134 0.0706125 45.4801C-0.0235375 45.1068 -0.0235375 44.8135 0.0706125 44.6002C0.09415 44.5202 0.482519 44.0402 1.23572 43.1603C1.98892 42.2538 2.36552 41.5072 2.36552 40.9206V24.0025C2.36552 23.3892 1.98892 22.6427 1.23572 21.7628C0.506056 20.8829 0.117687 20.3762 0.0706125 20.2429C0.0235375 20.1629 0 20.0563 0 19.923C0 19.763 0.0117688 19.6297 0.0353062 19.523L0.0706125 19.363C0.0706125 19.0697 0.235375 18.9231 0.5649 18.9231H11.4392C13.7694 18.9231 15.676 19.5497 17.1588 20.8029C18.6417 22.0294 19.3949 23.5625 19.4184 25.4023C19.4184 26.7888 18.9948 28.042 18.1474 29.1619C17.3236 30.2551 16.1703 31.055 14.6874 31.5616C16.7352 31.9083 18.3592 32.7082 19.5597 33.9614C20.7601 35.2146 21.372 36.6944 21.3956 38.4009ZM13.84 24.4425C13.1339 21.6161 11.9924 20.2029 10.4153 20.2029C9.14432 20.2029 8.36758 21.0828 8.08513 22.8426V25.0024C8.08513 25.029 8.0969 25.069 8.12043 25.1224V25.1624C8.61472 28.842 9.7916 30.6817 11.6511 30.6817C11.8864 30.6817 12.1689 30.6284 12.4984 30.5218C13.2987 30.2285 13.8165 29.4552 14.0519 28.202C14.2873 26.9222 14.2166 25.669 13.84 24.4425ZM11.7923 44.2402C12.9927 44.2402 13.993 43.6936 14.7933 42.6004C15.5936 41.5072 15.8643 40.134 15.6054 38.4809C15.4171 37.361 15.0522 36.4678 14.5109 35.8012C13.993 35.1346 13.1575 34.5613 12.0041 34.0814C11.9335 34.0547 11.6981 33.9614 11.298 33.8014C10.9214 33.6414 10.6389 33.5214 10.4506 33.4414C10.2623 33.3348 10.0034 33.1881 9.67391 33.0015C9.36792 32.8148 9.08547 32.6015 8.82656 32.3615C8.56765 32.1216 8.33227 31.8549 8.12043 31.5616V34.2813C8.16751 36.0945 8.2852 37.6543 8.4735 38.9608C8.6618 40.2673 8.87364 41.2539 9.10901 41.9205C9.34439 42.5604 9.65037 43.067 10.027 43.4403C10.4036 43.8136 10.6978 44.0402 10.9096 44.1202C11.145 44.1735 11.4392 44.2135 11.7923 44.2402Z" fill="#797636"/>
</svg>
