<svg width="209" height="74" viewBox="0 0 209 74" fill="none" xmlns="http://www.w3.org/2000/svg">
<path d="M131.184 20.4074C131.184 20.4074 137.158 20.4427 143.235 18.6083C149.312 16.7738 152.334 17.3237 161.994 19.9C171.653 22.4763 181.345 22.3167 181.345 22.3167" stroke="#EDBC9B" stroke-width="32" stroke-linecap="round"/>
<path d="M204.489 72.3736C206.742 72.3736 208.545 70.9506 208.545 68.3755C208.545 65.6648 206.742 64.2418 204.489 64.2418C202.17 64.2418 200.367 65.6648 200.367 68.3755C200.367 70.9506 202.17 72.3736 204.489 72.3736Z" fill="#797636"/>
<path d="M64.322 26.5506C64.322 27.2282 64.7445 28.0278 65.5896 28.9494C66.4619 29.8711 66.8981 30.4538 66.8981 30.6978V31.0637C66.8981 31.4432 66.6937 31.633 66.2847 31.633H55.6121C55.1759 31.633 54.9579 31.4568 54.9579 31.1044C54.8761 30.7249 54.8761 30.4267 54.9579 30.2099C55.0396 30.0473 55.3122 29.7491 55.7757 29.3154C56.2664 28.8546 56.6889 28.3802 57.0433 27.8923C57.425 27.4044 57.6022 26.93 57.5749 26.4692V19.1505C57.5749 18.4187 57.4386 17.863 57.166 17.4835C56.8934 17.104 56.5117 16.8194 56.021 16.6297C55.5303 16.4128 55.2441 16.2637 55.1623 16.1824C54.917 15.9927 54.7943 15.7216 54.7943 15.3692C54.767 15.0168 54.9033 14.7458 55.2032 14.556C55.9938 14.0952 57.1251 13.648 58.5972 13.2143C60.0965 12.7535 61.2824 12.5231 62.1547 12.5231C62.9453 12.5231 63.5041 12.8348 63.8313 13.4582C64.1584 14.0546 64.322 15.1795 64.322 16.833V26.5506ZM60.56 4.18791C61.7594 4.18791 62.7681 4.51318 63.5859 5.16373C64.431 5.81428 64.8536 6.60037 64.8536 7.52198C64.8536 8.44359 64.431 9.24322 63.5859 9.92088C62.7408 10.5714 61.7322 10.8967 60.56 10.8967C59.3878 10.8967 58.3791 10.5714 57.534 9.92088C56.6889 9.24322 56.2664 8.44359 56.2664 7.52198C56.2664 6.60037 56.6889 5.81428 57.534 5.16373C58.3791 4.51318 59.3878 4.18791 60.56 4.18791Z" fill="#797636"/>
<path d="M68.2392 14.8813C67.8303 14.8813 67.6258 14.6916 67.6258 14.3121V13.7022C67.6258 13.3227 67.8303 13.133 68.2392 13.133C69.1661 13.133 69.9839 12.9161 70.6927 12.4824C71.4015 12.0216 71.9467 11.4659 72.3283 10.8154C72.7373 10.1648 73.1053 9.51428 73.4324 8.86373C73.7595 8.18608 74.1139 7.61685 74.4956 7.15604C74.9045 6.69524 75.3407 6.45128 75.8041 6.42417H75.8859C76.6764 6.42417 77.0717 7.22381 77.0717 8.82308C77.0717 8.9315 77.0581 9.48718 77.0308 10.4901C77.0308 11.4659 77.0308 12.3469 77.0308 13.133H80.4657C80.8201 13.133 80.9973 13.3227 80.9973 13.7022V14.3121C80.9973 14.6916 80.8201 14.8813 80.4657 14.8813H76.9491C76.9491 16.1553 76.9354 17.8766 76.9082 20.0451C76.8809 22.2136 76.8673 23.5011 76.8673 23.9077C76.8673 25.7238 77.3443 26.6319 78.2985 26.6319C78.7346 26.6319 79.3889 26.4286 80.2613 26.022C80.3158 25.9949 80.3976 25.9813 80.5066 25.9813C80.7247 25.9813 80.9019 26.0897 81.0382 26.3066C81.2018 26.5234 81.2426 26.7403 81.1609 26.9571C80.9155 28.1227 80.2612 29.1934 79.1981 30.1692C78.1622 31.1451 76.8945 31.633 75.3952 31.633C74.0321 31.633 72.7918 31.1586 71.6741 30.2099C70.5836 29.2612 70.0384 28.0414 70.0384 26.5506C70.0384 25.8458 70.0248 23.989 69.9975 20.9802C69.9703 17.9714 69.9566 15.9385 69.9566 14.8813H68.2392Z" fill="#797636"/>
<path d="M82.9345 14.8813C82.5256 14.8813 82.3211 14.6916 82.3211 14.3121V13.7022C82.3211 13.3227 82.5256 13.133 82.9345 13.133C83.8614 13.133 84.6792 12.9161 85.388 12.4824C86.0968 12.0216 86.642 11.4659 87.0236 10.8154C87.4326 10.1648 87.8006 9.51428 88.1277 8.86373C88.4548 8.18608 88.8092 7.61685 89.1909 7.15604C89.5998 6.69524 90.036 6.45128 90.4994 6.42417H90.5812C91.3717 6.42417 91.767 7.22381 91.767 8.82308C91.767 8.9315 91.7534 9.48718 91.7261 10.4901C91.7261 11.4659 91.7261 12.3469 91.7261 13.133H95.161C95.5154 13.133 95.6926 13.3227 95.6926 13.7022V14.3121C95.6926 14.6916 95.5154 14.8813 95.161 14.8813H91.6444C91.6444 16.1553 91.6307 17.8766 91.6035 20.0451C91.5762 22.2136 91.5626 23.5011 91.5626 23.9077C91.5626 25.7238 92.0396 26.6319 92.9938 26.6319C93.4299 26.6319 94.0842 26.4286 94.9566 26.022C95.0111 25.9949 95.0928 25.9813 95.2019 25.9813C95.42 25.9813 95.5972 26.0897 95.7335 26.3066C95.897 26.5234 95.9379 26.7403 95.8562 26.9571C95.6108 28.1227 94.9566 29.1934 93.8934 30.1692C92.8575 31.1451 91.5898 31.633 90.0905 31.633C88.7274 31.633 87.4871 31.1586 86.3694 30.2099C85.279 29.2612 84.7337 28.0414 84.7337 26.5506C84.7337 25.8458 84.7201 23.989 84.6928 20.9802C84.6656 17.9714 84.6519 15.9385 84.6519 14.8813H82.9345Z" fill="#797636"/>
<path d="M107.894 12.5637C111.056 12.5637 113.659 13.5125 115.704 15.4099C117.748 17.3073 118.771 19.6385 118.771 22.4033C118.771 25.2223 117.776 27.5806 115.786 29.478C113.795 31.3755 111.165 32.3242 107.894 32.3242C104.649 32.3242 102.019 31.3755 100.002 29.478C98.0115 27.5806 97.0164 25.2223 97.0164 22.4033C97.0164 19.6385 98.0387 17.3073 100.083 15.4099C102.155 13.5125 104.759 12.5637 107.894 12.5637ZM109.775 30.5758C111.001 30.2777 111.751 29.2747 112.024 27.567C112.323 25.8593 112.201 23.9212 111.656 21.7527C111.11 19.5842 110.402 17.8359 109.529 16.5077C108.684 15.1524 107.73 14.4747 106.667 14.4747C106.53 14.4747 106.353 14.5018 106.135 14.556C104.908 14.8542 104.132 15.8571 103.804 17.5648C103.477 19.2454 103.573 21.1835 104.091 23.3791C104.527 25.5205 105.167 27.2689 106.013 28.6242C106.885 29.9795 107.894 30.6571 109.038 30.6571C109.366 30.6571 109.611 30.63 109.775 30.5758Z" fill="#797636"/>
<path d="M133.253 12.3604C133.308 12.3604 133.403 12.3604 133.54 12.3604C133.703 12.3333 133.826 12.3198 133.908 12.3198C135.543 12.3198 136.92 12.7399 138.038 13.5802C139.155 14.4205 139.701 15.5183 139.673 16.8736C139.673 17.741 139.374 18.4593 138.774 19.0286C138.201 19.5707 137.493 19.8418 136.647 19.8418C135.693 19.8418 134.957 19.652 134.439 19.2725C133.921 18.8659 133.662 18.3509 133.662 17.7275C133.662 17.2125 133.867 16.6026 134.276 15.8978C134.494 15.3286 134.48 14.8271 134.235 14.3934C133.989 13.9597 133.553 13.7429 132.926 13.7429C131.863 13.7157 131.032 14.2985 130.432 15.4912C129.859 16.6839 129.546 18.3103 129.491 20.3703V26.5506C129.491 27.2282 129.914 28.0278 130.759 28.9494C131.631 29.8711 132.068 30.4538 132.068 30.6978V31.0637C132.068 31.4432 131.863 31.633 131.454 31.633H120.782C120.345 31.633 120.127 31.4568 120.127 31.1044C120.046 30.7249 120.073 30.4267 120.209 30.2099C120.264 30.0201 120.523 29.722 120.986 29.3154C121.45 28.8817 121.858 28.4209 122.213 27.933C122.594 27.4179 122.772 26.93 122.744 26.4692V19.6385C122.744 18.9337 122.594 18.3916 122.295 18.0121C122.022 17.6055 121.654 17.2938 121.191 17.0769C120.727 16.8601 120.454 16.711 120.373 16.6297C120.127 16.467 120.005 16.2231 120.005 15.8978C120.005 15.5725 120.127 15.3015 120.373 15.0846C120.809 14.5967 121.913 14.0681 123.685 13.4989C125.457 12.9026 126.697 12.5908 127.406 12.5637C128.088 12.5637 128.646 13.3092 129.083 14.8C130.037 13.3905 131.427 12.5773 133.253 12.3604Z" fill="#797636"/>
<path d="M150.857 26.5506C150.857 27.2282 151.279 28.0278 152.124 28.9494C152.996 29.8711 153.433 30.4538 153.433 30.6978V31.0637C153.433 31.4432 153.228 31.633 152.819 31.633H142.147C141.71 31.633 141.492 31.4568 141.492 31.1044C141.411 30.7249 141.411 30.4267 141.492 30.2099C141.574 30.0473 141.847 29.7491 142.31 29.3154C142.801 28.8546 143.223 28.3802 143.578 27.8923C143.96 27.4044 144.137 26.93 144.109 26.4692V19.1505C144.109 18.4187 143.973 17.863 143.701 17.4835C143.428 17.104 143.046 16.8194 142.556 16.6297C142.065 16.4128 141.779 16.2637 141.697 16.1824C141.452 15.9927 141.329 15.7216 141.329 15.3692C141.302 15.0168 141.438 14.7458 141.738 14.556C142.528 14.0952 143.66 13.648 145.132 13.2143C146.631 12.7535 147.817 12.5231 148.689 12.5231C149.48 12.5231 150.039 12.8348 150.366 13.4582C150.693 14.0546 150.857 15.1795 150.857 16.833V26.5506ZM147.095 4.18791C148.294 4.18791 149.303 4.51318 150.12 5.16373C150.966 5.81428 151.388 6.60037 151.388 7.52198C151.388 8.44359 150.966 9.24322 150.12 9.92088C149.275 10.5714 148.267 10.8967 147.095 10.8967C145.922 10.8967 144.914 10.5714 144.069 9.92088C143.223 9.24322 142.801 8.44359 142.801 7.52198C142.801 6.60037 143.223 5.81428 144.069 5.16373C144.914 4.51318 145.922 4.18791 147.095 4.18791Z" fill="#797636"/>
<path d="M165.437 12.5637C168.599 12.5637 171.202 13.5125 173.247 15.4099C175.292 17.3073 176.314 19.6385 176.314 22.4033C176.314 25.2223 175.319 27.5806 173.329 29.478C171.339 31.3755 168.708 32.3242 165.437 32.3242C162.193 32.3242 159.562 31.3755 157.545 29.478C155.555 27.5806 154.56 25.2223 154.56 22.4033C154.56 19.6385 155.582 17.3073 157.627 15.4099C159.698 13.5125 162.302 12.5637 165.437 12.5637ZM167.318 30.5758C168.545 30.2777 169.294 29.2747 169.567 27.567C169.867 25.8593 169.744 23.9212 169.199 21.7527C168.654 19.5842 167.945 17.8359 167.072 16.5077C166.227 15.1524 165.273 14.4747 164.21 14.4747C164.074 14.4747 163.897 14.5018 163.678 14.556C162.452 14.8542 161.675 15.8571 161.348 17.5648C161.021 19.2454 161.116 21.1835 161.634 23.3791C162.07 25.5205 162.711 27.2689 163.556 28.6242C164.428 29.9795 165.437 30.6571 166.582 30.6571C166.909 30.6571 167.154 30.63 167.318 30.5758Z" fill="#797636"/>
<path d="M57.2478 0.669683V1.05236C57.2478 1.43504 56.6544 2.15255 55.4678 3.20491C54.2811 4.25727 53.4794 5.2618 53.0624 6.21849L45.702 27.9354C45.4134 29.1791 45.4294 30.056 45.7501 30.5663C46.0067 31.0446 45.8944 31.4273 45.4134 31.7143C44.1946 32.2564 42.8797 32.5275 41.4686 32.5275C41.0516 32.5275 40.7309 32.5115 40.5064 32.4796H40.5545C39.6886 32.4478 38.8868 32.2086 38.1491 31.7621C37.4115 31.3157 36.7701 30.7098 36.2248 29.9444C35.7117 29.1472 35.3108 28.5094 35.0222 28.031C34.7656 27.5208 34.4769 26.883 34.1562 26.1176C33.7393 25.161 33.0177 23.0403 31.9914 19.7557C30.9972 16.471 30.0831 13.4256 29.2493 10.6193C28.4154 7.78108 27.9985 6.31416 27.9985 6.21849C27.6778 5.42125 27.1486 4.67184 26.4109 3.97027C25.7054 3.26869 25.08 2.69468 24.5348 2.24822C23.9895 1.80177 23.7169 1.40315 23.7169 1.05236V0.669683C23.7169 0.223228 23.9414 0 24.3904 0L37.7643 0.0478339C38.2774 0.0478339 38.534 0.239172 38.534 0.621849C38.6302 1.0683 38.5981 1.41909 38.4378 1.67421C38.3736 1.83365 38.1331 2.15255 37.7162 2.6309C37.3313 3.10924 37.0427 3.61948 36.8502 4.1616C36.6899 4.70373 36.7059 5.29369 36.8984 5.93148L36.9946 6.17065C39.1434 16.5667 40.7469 22.8808 41.8053 25.1131C42.0619 25.5596 42.4147 25.7828 42.8637 25.7828C43.3768 25.7828 43.7136 25.5277 43.8739 25.0175L50.176 5.97932C50.3363 5.05451 50.3524 4.40078 50.2241 4.0181C50.0958 3.63542 49.8232 3.18897 49.4063 2.67873C49.0214 2.1685 48.7969 1.83365 48.7328 1.67421C48.6686 1.54665 48.6205 1.40315 48.5884 1.2437C48.5884 1.05236 48.5884 0.908855 48.5884 0.813185L48.6366 0.621849C48.6366 0.239172 48.8931 0.0478339 49.4063 0.0478339L56.5262 0C57.0072 0 57.2478 0.223228 57.2478 0.669683Z" fill="#797636"/>
<path d="M69.323 66.6163V67.7791C69.323 67.9201 69.2344 68.0786 69.0572 68.2548C68.9154 68.3958 68.7205 68.4663 68.4724 68.4663C66.984 68.4663 65.655 68.4486 64.4855 68.4134C63.316 68.4134 62.5718 68.4134 62.2529 68.4134C61.1897 68.4134 60.2506 68.0082 59.4355 67.1977C58.6558 66.352 58.071 65.3301 57.6812 64.132C56.618 67.3386 54.2259 68.942 50.5048 68.942C48.2013 68.942 46.1458 68.2548 44.3384 66.8806C42.531 65.5063 41.3792 63.3744 40.8831 60.4848C40.7059 59.4629 40.6173 56.4501 40.6173 51.4463C40.5819 50.7767 40.4047 50.1425 40.0857 49.5434C39.8022 48.9444 39.5187 48.5039 39.2352 48.222C38.9517 47.9048 38.5973 47.5525 38.172 47.1648C37.7467 46.7772 37.4987 46.5482 37.4278 46.4777C37.1443 46.1958 37.0025 45.8434 37.0025 45.4206C37.0025 44.9977 37.162 44.6805 37.4809 44.4691C38.7567 43.7644 41.3438 43.412 45.2421 43.412C46.9432 43.412 48.0595 43.7467 48.5911 44.4163C49.1581 45.0858 49.4239 46.5658 49.3885 48.8563V60.432C49.4948 61.6301 49.8669 62.6872 50.5048 63.6034C51.1781 64.4844 52.0818 64.9072 53.2159 64.872C54.031 64.8367 54.7221 64.5548 55.2891 64.0263C55.8915 63.4977 56.3168 62.8105 56.5649 61.9648C56.813 61.1191 56.9902 60.3263 57.0965 59.5863C57.2028 58.811 57.256 58.0182 57.256 57.2077L57.3623 51.8163C57.3623 51.2172 57.2737 50.671 57.0965 50.1777C56.9547 49.6491 56.7421 49.191 56.4586 48.8034C56.1751 48.4158 55.9093 48.0986 55.6612 47.852C55.4486 47.5701 55.165 47.2882 54.8107 47.0063C54.4917 46.7244 54.2968 46.5482 54.2259 46.4777C53.9424 46.1958 53.7829 45.8434 53.7475 45.4206C53.7475 44.9977 53.9247 44.6805 54.2791 44.4691C55.484 43.7644 58.0533 43.412 61.9871 43.412C63.7236 43.412 64.8576 43.7467 65.3892 44.4163C65.9563 45.0505 66.222 46.5305 66.1866 48.8563L65.9208 61.6477C65.8854 62.282 66.1157 62.9339 66.6119 63.6034C67.108 64.2377 67.6573 64.8544 68.2598 65.4534C68.8623 66.0172 69.2166 66.4048 69.323 66.6163Z" fill="#797636"/>
<path d="M91.6097 54.142C92.2122 54.4591 92.602 54.6882 92.7792 54.8291C92.9919 54.9348 93.4348 55.2344 94.1082 55.7277C94.7815 56.221 95.2777 56.6791 95.5966 57.102C95.9156 57.5248 96.2168 58.1063 96.5003 58.8463C96.8193 59.551 96.961 60.3086 96.9256 61.1191C96.8902 62.8458 96.2345 64.3082 94.9587 65.5063C93.6829 66.7044 92.1059 67.5677 90.2276 68.0963C88.3493 68.6248 86.2584 68.9067 83.9549 68.942C80.4818 68.9772 77.6467 68.4134 75.4495 67.2505C73.2523 66.0877 72.0473 64.8191 71.8347 63.4448C71.693 62.282 71.9233 61.2777 72.5258 60.432C73.1282 59.5863 73.9965 59.0225 75.1305 58.7406C75.5558 58.6701 75.8748 58.6348 76.0874 58.6348C77.1506 58.6348 78.1783 58.8991 79.1706 59.4277C80.1629 59.921 80.6945 60.4496 80.7654 61.0134C80.8362 61.3658 80.6413 61.8239 80.1806 62.3877C79.7199 62.9515 79.4364 63.4625 79.3301 63.9206C79.0466 64.9425 79.3478 65.7706 80.2338 66.4048C81.1198 67.0391 82.2715 67.3563 83.6891 67.3563C85.1067 67.3563 86.2053 67.0391 86.9849 66.4048C87.8 65.7353 88.1721 64.9072 88.1013 63.9206C88.0658 63.0396 87.5697 62.1939 86.6128 61.3834C85.656 60.5729 84.6814 59.921 83.6891 59.4277C83.5119 59.3572 83.1575 59.1986 82.6259 58.952C82.1298 58.6701 81.5273 58.3529 80.8185 58.0005C80.1452 57.6129 79.649 57.331 79.3301 57.1548C74.9002 54.9348 72.8093 52.3801 73.0574 49.4906C73.3054 47.5172 74.5281 45.9315 76.7253 44.7334C78.958 43.5001 81.6159 42.8834 84.6991 42.8834H85.7091C88.7923 43.0596 91.0959 43.641 92.6197 44.6277C94.1791 45.6144 94.9942 46.7244 95.065 47.9577C95.1359 48.6625 94.8878 49.2967 94.3208 49.8605C93.7892 50.3891 93.0273 50.671 92.035 50.7063C91.8578 50.7415 91.592 50.7591 91.2376 50.7591C90.2808 50.7591 89.3948 50.5477 88.5797 50.1248C87.8 49.702 87.357 49.2086 87.2507 48.6448C87.2507 48.3277 87.4811 47.9929 87.9418 47.6405C88.4025 47.2882 88.6506 46.9358 88.686 46.5834C88.7214 46.372 88.6506 46.1429 88.4734 45.8963C88.2962 45.6144 87.9241 45.3501 87.357 45.1034C86.8254 44.8567 86.1521 44.7158 85.337 44.6805C84.2738 44.6805 83.2993 44.8744 82.4133 45.262C81.5273 45.6144 81.0843 46.2486 81.0843 47.1648C81.1198 47.5877 81.3501 48.0282 81.7754 48.4863C82.2006 48.9091 82.5728 49.2086 82.8917 49.3848C83.2107 49.561 83.7068 49.8253 84.3801 50.1777C84.5219 50.2482 85.0889 50.5653 86.0812 51.1291C87.109 51.6577 88.1367 52.2039 89.1644 52.7677C90.2276 53.3315 91.0427 53.7896 91.6097 54.142Z" fill="#797636"/>
<path d="M125.307 65.0305C126.406 65.9467 126.335 66.7748 125.095 67.5148C123.89 68.1139 122.384 68.4134 120.576 68.4134C117.387 67.9905 115.367 65.6825 114.516 61.4891C114.516 61.4539 114.498 61.3482 114.463 61.172C114.25 60.2206 114.055 59.4629 113.878 58.8991C113.701 58.3001 113.347 57.6658 112.815 56.9963C112.283 56.2915 111.628 55.9215 110.848 55.8863H110.636C109.608 55.8863 108.81 56.3444 108.243 57.2606C107.676 58.1415 107.464 59.3044 107.605 60.7491C107.747 62.0882 108.332 63.1101 109.36 63.8148C110.423 64.5196 111.646 64.872 113.028 64.872C113.063 64.8367 113.134 64.8191 113.24 64.8191C113.311 64.8191 113.453 64.872 113.666 64.9777C113.736 65.0834 113.772 65.2596 113.772 65.5063C113.382 66.211 112.638 66.8629 111.539 67.462C110.441 68.0258 109.076 68.3077 107.446 68.3077C105.142 68.3077 103.105 67.7086 101.333 66.5106C99.5963 65.2772 98.6748 63.4977 98.5685 61.172C98.4976 58.811 99.4013 56.961 101.28 55.622C103.193 54.2829 105.337 53.5606 107.712 53.4548C107.818 53.4548 107.96 53.4548 108.137 53.4548C108.314 53.4196 108.456 53.402 108.562 53.402C110.724 53.402 112.407 53.8072 113.612 54.6177C113.577 54.4767 113.524 54.2301 113.453 53.8777C113.418 53.4901 113.382 53.2082 113.347 53.032C112.85 49.6491 112.266 47.4467 111.592 46.4248C110.919 45.4382 110.104 44.9448 109.147 44.9448C107.411 44.9448 106.844 45.7201 107.446 47.2705C107.942 48.2572 108.19 49.0325 108.19 49.5963C108.19 50.3363 107.8 50.9529 107.021 51.4463C106.241 51.9396 105.337 52.1863 104.31 52.1863C103.282 52.1863 102.378 51.8691 101.599 51.2348C100.819 50.5653 100.429 49.7196 100.429 48.6977C100.429 47.0415 101.297 45.7377 103.034 44.7863C104.77 43.8348 106.897 43.3591 109.413 43.3591C110.086 43.3591 110.582 43.3767 110.901 43.412C117.032 43.7644 120.647 46.6186 121.746 51.9748C121.746 52.1863 122.26 55.0582 123.287 60.5906C123.748 62.6696 124.421 64.1496 125.307 65.0305Z" fill="#797636"/>
<path d="M128.231 46.4248C127.699 46.4248 127.433 46.1782 127.433 45.6848V44.892C127.433 44.3986 127.699 44.152 128.231 44.152C129.436 44.152 130.499 43.8701 131.42 43.3063C132.342 42.7072 133.05 41.9848 133.546 41.1391C134.078 40.2934 134.557 39.4477 134.982 38.602C135.407 37.721 135.868 36.981 136.364 36.382C136.895 35.7829 137.463 35.4658 138.065 35.4305H138.171C139.199 35.4305 139.713 36.4701 139.713 38.5491C139.713 38.6901 139.695 39.4125 139.66 40.7163C139.66 41.9848 139.66 43.1301 139.66 44.152H144.125C144.586 44.152 144.816 44.3986 144.816 44.892V45.6848C144.816 46.1782 144.586 46.4248 144.125 46.4248H139.553C139.553 48.081 139.536 50.3186 139.5 53.1377C139.465 55.9567 139.447 57.6305 139.447 58.1591C139.447 60.5201 140.067 61.7006 141.308 61.7006C141.875 61.7006 142.725 61.4363 143.859 60.9077C143.93 60.8725 144.036 60.8548 144.178 60.8548C144.462 60.8548 144.692 60.9958 144.869 61.2777C145.082 61.5596 145.135 61.8415 145.029 62.1234C144.71 63.6386 143.859 65.0305 142.477 66.2991C141.13 67.5677 139.483 68.202 137.533 68.202C135.761 68.202 134.149 67.5853 132.696 66.352C131.278 65.1186 130.57 63.5329 130.57 61.5948C130.57 60.6786 130.552 58.2648 130.516 54.3534C130.481 50.442 130.463 47.7991 130.463 46.4248H128.231Z" fill="#797636"/>
<path d="M147.335 46.4248C146.803 46.4248 146.537 46.1782 146.537 45.6848V44.892C146.537 44.3986 146.803 44.152 147.335 44.152C148.539 44.152 149.603 43.8701 150.524 43.3063C151.445 42.7072 152.154 41.9848 152.65 41.1391C153.182 40.2934 153.66 39.4477 154.086 38.602C154.511 37.721 154.972 36.981 155.468 36.382C155.999 35.7829 156.566 35.4658 157.169 35.4305H157.275C158.303 35.4305 158.817 36.4701 158.817 38.5491C158.817 38.6901 158.799 39.4125 158.764 40.7163C158.764 41.9848 158.764 43.1301 158.764 44.152H163.229C163.69 44.152 163.92 44.3986 163.92 44.892V45.6848C163.92 46.1782 163.69 46.4248 163.229 46.4248H158.657C158.657 48.081 158.64 50.3186 158.604 53.1377C158.569 55.9567 158.551 57.6305 158.551 58.1591C158.551 60.5201 159.171 61.7006 160.412 61.7006C160.979 61.7006 161.829 61.4363 162.963 60.9077C163.034 60.8725 163.14 60.8548 163.282 60.8548C163.566 60.8548 163.796 60.9958 163.973 61.2777C164.186 61.5596 164.239 61.8415 164.133 62.1234C163.814 63.6386 162.963 65.0305 161.581 66.2991C160.234 67.5677 158.586 68.202 156.637 68.202C154.865 68.202 153.253 67.5853 151.8 66.352C150.382 65.1186 149.674 63.5329 149.674 61.5948C149.674 60.6786 149.656 58.2648 149.62 54.3534C149.585 50.442 149.567 47.7991 149.567 46.4248H147.335Z" fill="#797636"/>
<path d="M193.936 65.0305C195.035 65.9467 194.964 66.7748 193.723 67.5148C192.518 68.1139 191.012 68.4134 189.205 68.4134C186.015 67.9905 183.995 65.6825 183.145 61.4891C183.145 61.4539 183.127 61.3482 183.092 61.172C182.879 60.2206 182.684 59.4629 182.507 58.8991C182.33 58.3001 181.975 57.6658 181.444 56.9963C180.912 56.2915 180.256 55.9215 179.477 55.8863H179.264C178.236 55.8863 177.439 56.3444 176.872 57.2606C176.305 58.1415 176.092 59.3044 176.234 60.7491C176.376 62.0882 176.961 63.1101 177.988 63.8148C179.052 64.5196 180.274 64.872 181.656 64.872C181.692 64.8367 181.763 64.8191 181.869 64.8191C181.94 64.8191 182.082 64.872 182.294 64.9777C182.365 65.0834 182.401 65.2596 182.401 65.5063C182.011 66.211 181.266 66.8629 180.168 67.462C179.069 68.0258 177.705 68.3077 176.075 68.3077C173.771 68.3077 171.733 67.7086 169.961 66.5106C168.225 65.2772 167.303 63.4977 167.197 61.172C167.126 58.811 168.03 56.961 169.908 55.622C171.822 54.2829 173.966 53.5606 176.34 53.4548C176.447 53.4548 176.589 53.4548 176.766 53.4548C176.943 53.4196 177.085 53.402 177.191 53.402C179.353 53.402 181.036 53.8072 182.241 54.6177C182.206 54.4767 182.152 54.2301 182.082 53.8777C182.046 53.4901 182.011 53.2082 181.975 53.032C181.479 49.6491 180.894 47.4467 180.221 46.4248C179.548 45.4382 178.733 44.9448 177.776 44.9448C176.039 44.9448 175.472 45.7201 176.075 47.2705C176.571 48.2572 176.819 49.0325 176.819 49.5963C176.819 50.3363 176.429 50.9529 175.649 51.4463C174.87 51.9396 173.966 52.1863 172.938 52.1863C171.911 52.1863 171.007 51.8691 170.227 51.2348C169.448 50.5653 169.058 49.7196 169.058 48.6977C169.058 47.0415 169.926 45.7377 171.662 44.7863C173.399 43.8348 175.525 43.3591 178.042 43.3591C178.715 43.3591 179.211 43.3767 179.53 43.412C185.661 43.7644 189.276 46.6186 190.374 51.9748C190.374 52.1863 190.888 55.0582 191.916 60.5906C192.377 62.6696 193.05 64.1496 193.936 65.0305Z" fill="#797636"/>
<path d="M35.9835 61.2196C36.0231 65.0313 34.6574 68.0583 31.8863 70.3004C29.1153 72.5426 25.4537 73.7758 20.9013 74H20.9607H0.950059C0.75213 74 0.554201 73.9103 0.356272 73.7309C0.197929 73.5516 0.118757 73.3498 0.118757 73.1256C-0.0395858 72.4978 -0.0395858 72.0045 0.118757 71.6457C0.158343 71.5112 0.811508 70.704 2.07825 69.2242C3.345 67.6995 3.97837 66.4439 3.97837 65.4573V37.0042C3.97837 35.9728 3.345 34.7172 2.07825 33.2374C0.851094 31.7575 0.197929 30.9055 0.118757 30.6813C0.0395858 30.5468 0 30.3674 0 30.1432C0 29.8741 0.0197929 29.6499 0.0593787 29.4705L0.118757 29.2015C0.118757 28.7082 0.395858 28.4615 0.950059 28.4615H19.2387C23.1577 28.4615 26.3641 29.5154 28.858 31.623C31.3519 33.6858 32.6187 36.2643 32.6583 39.3585C32.6583 41.6903 31.9457 43.798 30.5206 45.6814C29.1351 47.52 27.1954 48.8653 24.7015 49.7173C28.1455 50.3003 30.8769 51.6456 32.8958 53.7532C34.9147 55.8609 35.9439 58.3497 35.9835 61.2196ZM23.2764 37.7441C22.0889 32.9907 20.169 30.614 17.5167 30.614C15.3791 30.614 14.0727 32.0939 13.5977 35.0535V38.6858C13.5977 38.7307 13.6175 38.7979 13.6571 38.8876V38.9549C14.4884 45.1433 16.4677 48.2375 19.595 48.2375C19.9908 48.2375 20.4658 48.1478 21.0201 47.9684C22.366 47.4751 23.2369 46.1747 23.6327 44.067C24.0286 41.9146 23.9098 39.8069 23.2764 37.7441ZM19.8325 71.0403C21.8514 71.0403 23.5338 70.1211 24.8797 68.2825C26.2256 66.4439 26.6808 64.1345 26.2454 61.3542C25.9287 59.4707 25.3151 57.9685 24.4046 56.8474C23.5337 55.7263 22.1285 54.7622 20.1888 53.955C20.07 53.9102 19.6741 53.7532 19.0012 53.4841C18.3678 53.2151 17.8928 53.0133 17.5761 52.8788C17.2594 52.6994 16.824 52.4528 16.2698 52.1388C15.7551 51.8249 15.2801 51.4662 14.8447 51.0626C14.4092 50.659 14.0134 50.2106 13.6571 49.7173V54.2913C13.7363 57.3407 13.9342 59.964 14.2509 62.1614C14.5676 64.3587 14.9238 66.0179 15.3197 67.139C15.7156 68.2152 16.2302 69.0672 16.8635 69.695C17.4969 70.3228 17.9917 70.704 18.348 70.8385C18.7439 70.9282 19.2387 70.9955 19.8325 71.0403Z" fill="#797636"/>
</svg>
